<svg width="45" height="17" viewBox="0 0 45 17" fill="none" xmlns="http://www.w3.org/2000/svg">
<path d="M38.4739 12.637V4.045C38.9659 3.985 40.0579 3.985 40.5499 4.045V12.637C40.0579 12.697 38.9659 12.697 38.4739 12.637Z" fill="white"/>
<path d="M37.1741 8.65304V10.093C36.4061 10.165 34.5821 10.165 33.5861 10.105V10.237C33.5861 10.981 33.9701 11.149 35.0261 11.149C35.6981 11.149 36.2141 11.077 36.8861 10.957C36.9461 11.449 36.9461 12.073 36.8861 12.553C36.0101 12.709 35.3261 12.781 34.4861 12.781C32.6741 12.781 31.5101 12.253 31.5101 10.657V8.36504C31.5101 6.69704 32.7101 6.21704 34.3901 6.21704C35.8661 6.21704 37.1741 6.80504 37.1741 8.65304ZM35.1581 8.94104V8.62904C35.1581 7.93304 34.7741 7.84904 34.3661 7.84904C33.9701 7.84904 33.5861 7.93304 33.5861 8.61704V9.00104L34.2941 8.94104H35.1581Z" fill="white"/>
<path d="M28.1473 12.637V9.01304C28.1473 8.10104 27.7993 7.96904 27.3193 7.96904C26.7193 7.96904 26.4913 8.11304 26.3233 8.73704V12.637C25.8313 12.697 24.7393 12.697 24.2473 12.637V6.33704C24.7273 6.28904 25.6273 6.28904 26.1073 6.33704L26.2273 7.24904H26.3113C26.5153 6.48104 27.2353 6.21704 28.2073 6.21704C29.3713 6.21704 30.2233 6.67304 30.2233 8.00504V12.637C29.7313 12.697 28.6273 12.697 28.1473 12.637Z" fill="white"/>
<path d="M20.7645 12.637V9.01304C20.7645 8.10104 20.4165 7.96904 19.9365 7.96904C19.3365 7.96904 19.1085 8.11304 18.9405 8.73704V12.637C18.4485 12.697 17.3565 12.697 16.8645 12.637V6.33704C17.3445 6.28904 18.2445 6.28904 18.7245 6.33704L18.8445 7.24904H18.9285C19.1325 6.48104 19.8525 6.21704 20.8245 6.21704C21.9885 6.21704 22.8405 6.67304 22.8405 8.00504V12.637C22.3485 12.697 21.2445 12.697 20.7645 12.637Z" fill="white"/>
<path d="M13.5017 12.661L13.3937 11.761H13.3097C13.0937 12.529 12.3857 12.781 11.4017 12.781C10.2497 12.781 9.38574 12.337 9.38574 10.993V6.40901C9.87774 6.34901 10.9697 6.34901 11.4617 6.40901V10.009C11.4617 10.909 11.8097 11.041 12.3017 11.041C12.8897 11.041 13.1297 10.861 13.2857 10.273V6.40901C13.7777 6.34901 14.8817 6.34901 15.3617 6.40901V12.661C14.8817 12.721 13.9817 12.721 13.5017 12.661Z" fill="white"/>
<path d="M8.401 7.94496H6.937V9.96096C6.937 10.981 7.321 11.041 7.741 11.041C7.945 11.041 8.197 11.017 8.401 10.981C8.461 11.461 8.461 12.181 8.401 12.661C7.993 12.745 7.609 12.781 7.153 12.781C5.941 12.781 4.861 12.301 4.861 10.693V7.94496H4.045C3.985 7.46496 3.985 6.93696 4.045 6.45696L4.861 6.39696V4.84896C5.353 4.78896 6.445 4.78896 6.937 4.84896V6.36096H8.401C8.461 6.85296 8.461 7.46496 8.401 7.94496Z" fill="white"/>
</svg>
