<svg width="765" height="148" viewBox="0 0 765 148" fill="none" xmlns="http://www.w3.org/2000/svg">
<g clip-path="url(#clip0_402_75)">
<path d="M129.024 111.005L65.0034 73.9804V0L129.024 37.0245V111.005Z" fill="#80D8FF"/>
<path d="M0.912109 111.005L65.001 73.9804V0L0.912109 37.0245V111.005Z" fill="#7ACFFF"/>
<path d="M65.001 111.005L129.021 73.9808L65.001 37.0249L0.912109 73.9808L65.001 111.005Z" fill="url(#paint0_linear_402_75)"/>
<path opacity="0.3" d="M65.001 147.961L0.912109 111.005V37.0249L65.001 73.9808V147.961Z" fill="#E4F0FE"/>
<path d="M0.912109 111.004L65.001 147.96V111.004L0.912109 73.9797V111.004Z" fill="url(#paint1_linear_402_75)"/>
<path opacity="0.3" d="M65.0034 147.961L129.024 111.005V37.0249L65.0034 73.9808V147.961Z" fill="#D0E6FF"/>
<path d="M129.024 111.004L65.0034 147.96V111.004L129.024 73.9797V111.004Z" fill="url(#paint2_linear_402_75)"/>
<path opacity="0.3" d="M65.001 73.9804L129.021 37.0245L65.001 0L0.912109 37.0245L65.001 73.9804Z" fill="white"/>
<path d="M169.68 111C175.42 111.7 188.16 111.7 193.9 111V70.12C197.68 60.04 202.02 56.82 218.12 56.82C218.68 51.22 218.68 41.84 218.12 36.1C204.96 36.1 196 40.16 193.76 49.82H192.78L191.38 37.5C184.1 37.08 176.96 37.08 169.68 37.5V111Z" fill="white"/>
<path d="M293.696 64.52C293.696 42.96 278.436 36.1 261.216 36.1C241.616 36.1 227.616 41.7 227.616 61.16V87.9C227.616 106.52 241.196 112.68 262.336 112.68C272.136 112.68 280.116 111.84 290.336 110.02C291.036 104.42 291.036 97.14 290.336 91.4C282.496 92.8 276.476 93.64 268.636 93.64C256.316 93.64 251.836 91.68 251.836 83V81.46C263.456 82.16 284.736 82.16 293.696 81.32V64.52ZM270.176 67.88H260.096L251.836 68.58V64.1C251.836 56.12 256.316 55.14 260.936 55.14C265.696 55.14 270.176 56.12 270.176 64.24V67.88Z" fill="white"/>
<path d="M361.22 86.22C361.22 75.02 357.02 70.68 348.48 68.3L337.98 65.36C333.78 64.1 330.7 63.12 330.7 60.32V57.94C330.7 54.44 334.76 54.16 339.38 54.16C345.4 54.16 351.28 54.72 360.1 56.26C360.8 50.66 360.8 44.22 360.1 38.48C351.84 36.8 343.86 36.1 336.44 36.1C318.1 36.1 306.48 41.28 306.48 54.44V63.12C306.48 72.64 310.82 77.96 318.24 80.06L330 83.42C334.48 84.82 337 85.1 337 88.32V90.98C337 94.34 332.8 94.62 328.04 94.62C322.58 94.62 314.88 94.2 307.04 92.94C306.34 98.54 306.34 105.12 307.04 110.86C315.44 112.12 324.26 112.68 331.96 112.68C350.3 112.68 361.22 107.36 361.22 93.78V86.22Z" fill="white"/>
<path d="M440.532 64.52C440.532 42.96 425.272 36.1 408.052 36.1C388.452 36.1 374.452 41.7 374.452 61.16V87.9C374.452 106.52 388.032 112.68 409.172 112.68C418.972 112.68 426.952 111.84 437.172 110.02C437.872 104.42 437.872 97.14 437.172 91.4C429.332 92.8 423.312 93.64 415.472 93.64C403.152 93.64 398.672 91.68 398.672 83V81.46C410.292 82.16 431.572 82.16 440.532 81.32V64.52ZM417.012 67.88H406.932L398.672 68.58V64.1C398.672 56.12 403.152 55.14 407.772 55.14C412.532 55.14 417.012 56.12 417.012 64.24V67.88Z" fill="white"/>
<path d="M455.696 111C461.436 111.7 474.176 111.7 479.916 111V70.12C483.696 60.04 488.036 56.82 504.136 56.82C504.696 51.22 504.696 41.84 504.136 36.1C490.976 36.1 482.016 40.16 479.776 49.82H478.796L477.396 37.5C470.116 37.08 462.976 37.08 455.696 37.5V111Z" fill="white"/>
<path d="M528.892 111C536.452 111.7 552.692 111.7 560.252 111L581.252 38.2C575.652 37.5 563.332 37.5 557.732 38.2L544.852 88.18L531.832 38.2C526.232 37.5 513.492 37.5 507.752 38.2L528.892 111Z" fill="white"/>
<path d="M657.977 60.88C657.977 41.7 644.257 36.1 623.677 36.1C602.957 36.1 589.237 41.7 589.237 60.88V88.46C589.237 106.52 602.957 112.68 623.677 112.68C644.257 112.68 657.977 106.52 657.977 88.46V60.88ZM633.757 83.28C633.757 91.54 629.137 92.52 623.677 92.52C618.077 92.52 613.457 91.54 613.457 83.28V65.64C613.457 57.24 618.077 56.12 623.677 56.12C629.137 56.12 633.757 57.24 633.757 65.64V83.28Z" fill="white"/>
<path d="M673.899 111C679.639 111.7 692.379 111.7 698.119 111V38.2C692.379 37.5 679.639 37.5 673.899 38.2V111ZM698.959 10.62C693.079 9.91997 678.799 9.91997 673.059 10.62L673.479 28.82C679.219 29.52 692.799 29.52 698.539 28.82L698.959 10.62Z" fill="white"/>
<path d="M715.461 111C721.201 111.7 733.941 111.7 739.681 111V70.12C743.461 60.04 747.801 56.82 763.901 56.82C764.461 51.22 764.461 41.84 763.901 36.1C750.741 36.1 741.781 40.16 739.541 49.82H738.561L737.161 37.5C729.881 37.08 722.741 37.08 715.461 37.5V111Z" fill="white"/>
</g>
<defs>
<linearGradient id="paint0_linear_402_75" x1="3.30909" y1="87.7931" x2="128.355" y2="59.8427" gradientUnits="userSpaceOnUse">
<stop stop-color="#C132CE"/>
<stop offset="1" stop-color="#425AFA"/>
</linearGradient>
<linearGradient id="paint1_linear_402_75" x1="25.5456" y1="86.3782" x2="43.9892" y2="147.733" gradientUnits="userSpaceOnUse">
<stop stop-color="#425AFA"/>
<stop offset="0.16" stop-color="#5A52F2"/>
<stop offset="0.55" stop-color="#9241DE"/>
<stop offset="0.84" stop-color="#B436D3"/>
<stop offset="1" stop-color="#C132CE"/>
</linearGradient>
<linearGradient id="paint2_linear_402_75" x1="76.3258" y1="136.381" x2="117.183" y2="86.2497" gradientUnits="userSpaceOnUse">
<stop stop-color="#C132CE"/>
<stop offset="0.1" stop-color="#AB39D6"/>
<stop offset="0.28" stop-color="#8545E3"/>
<stop offset="0.47" stop-color="#684EED"/>
<stop offset="0.65" stop-color="#5355F4"/>
<stop offset="0.83" stop-color="#4659F9"/>
<stop offset="1" stop-color="#425AFA"/>
</linearGradient>
<clipPath id="clip0_402_75">
<rect width="765" height="148" fill="white"/>
</clipPath>
</defs>
</svg>
