<svg width="343" height="103" viewBox="0 0 343 103" fill="none" xmlns="http://www.w3.org/2000/svg">
<g clip-path="url(#clip0_510_923)">
<path d="M45.6976 84.1067L64.7599 73.1011V40.2017L36.2681 23.752L16.8105 34.9858L45.6976 51.6637L45.6976 84.1067Z" fill="url(#paint0_linear_510_923)"/>
<path fill-rule="evenodd" clip-rule="evenodd" d="M28.6858 22.5163L45.3571 12.8912L55.8644 6.80126L46.4098 1.34264C45.7584 0.966517 44.9557 0.966517 44.3043 1.34264L2.53959 25.4555C1.88813 25.8316 1.48682 26.5267 1.48682 27.279L1.48682 75.5047C1.48682 76.2569 1.88813 76.952 2.53959 77.3281L44.3043 101.441C44.9557 101.817 45.7584 101.817 46.4098 101.441L88.1745 77.3281C88.826 76.952 89.2273 76.2569 89.2273 75.5047V64.5693L78.6996 70.6421L45.3571 89.8924L12.0145 70.6421L12.0145 32.1415L28.6858 22.5163Z" fill="url(#paint1_linear_510_923)"/>
<path d="M70.2308 70.0021L89.2928 58.9966V27.2519C89.2928 26.5374 88.9116 25.8771 88.2928 25.5198L60.8011 9.64746L41.3433 20.8814L70.2308 37.5596L70.2308 70.0021Z" fill="url(#paint2_linear_510_923)"/>
</g>
<path d="M325.536 75.8237V73.5197L326.304 66.9917H325.632C323.808 73.1357 318.144 75.1517 310.56 75.1517C301.44 75.1517 294.432 71.2157 294.432 60.4637V25.9996C300 25.5196 305.472 25.5196 311.04 25.9996V52.7837C311.04 60.0797 313.728 61.1357 317.664 61.1357C322.368 61.1357 324.192 59.9837 325.536 54.9917V25.9996C331.104 25.5196 336.576 25.5196 342.144 25.9996V73.7117C342.144 90.1277 333.216 96.2717 314.496 96.2717C309.696 96.2717 303.552 95.8877 297.696 95.1197C297.504 91.3757 297.984 85.6157 298.944 81.9677C303.84 82.8317 308.544 83.2157 313.152 83.2157C318.816 83.2157 325.536 81.9677 325.536 75.8237Z" fill="white"/>
<path d="M269.178 76.3039L268.314 68.8159H267.642C266.202 74.6719 260.346 76.9759 252.858 76.9759C243.834 76.9759 236.922 72.9439 236.922 62.5759C236.922 48.8479 244.314 45.9679 254.778 45.9679C259.674 45.9679 263.13 46.2559 267.546 46.8319V44.6239C267.546 40.1119 264.666 37.5199 255.162 37.5199C251.514 37.5199 246.81 37.9039 241.05 38.8639C240.57 34.9279 240.57 30.1279 241.05 26.1919C248.25 24.8479 254.106 24.4639 260.346 24.4639C275.994 24.4639 284.154 28.4959 284.154 41.3599V76.3039C280.218 76.7839 273.018 76.7839 269.178 76.3039ZM267.546 60.8479V56.2399C265.05 55.6639 262.362 55.3759 260.634 55.3759C256.122 55.3759 253.53 55.9519 253.53 60.3679C253.53 64.5919 256.122 65.0719 259.386 65.0719C263.226 65.0719 265.914 63.9199 267.546 60.8479Z" fill="white"/>
<path d="M210.918 75.8235V7.08754C214.854 6.60754 223.59 6.60754 227.526 7.08754V75.8235C223.59 76.3035 214.854 76.3035 210.918 75.8235Z" fill="white"/>
<path d="M200.52 43.9519V55.4719C194.376 56.0479 179.784 56.0479 171.816 55.5679V56.6239C171.816 62.5759 174.888 63.9199 183.336 63.9199C188.712 63.9199 192.84 63.3439 198.216 62.3839C198.696 66.3199 198.696 71.3119 198.216 75.1519C191.208 76.3999 185.736 76.9759 179.016 76.9759C164.52 76.9759 155.208 72.7519 155.208 59.9839V41.6479C155.208 28.3039 164.808 24.4639 178.248 24.4639C190.056 24.4639 200.52 29.1679 200.52 43.9519ZM184.392 46.2559V43.7599C184.392 38.1919 181.32 37.5199 178.056 37.5199C174.888 37.5199 171.816 38.1919 171.816 43.6639V46.7359L177.48 46.2559H184.392Z" fill="white"/>
<path d="M115.48 75.8239V25.4239C120.472 25.1359 125.368 25.1359 130.36 25.4239L131.32 33.8719H131.992C133.528 27.2479 139.672 24.4639 148.696 24.4639C149.08 28.3999 149.08 34.8319 148.696 38.6719C137.656 38.6719 134.68 40.8799 132.088 47.7919V75.8239C128.152 76.3039 119.416 76.3039 115.48 75.8239Z" fill="white"/>
<defs>
<linearGradient id="paint0_linear_510_923" x1="32.2076" y1="27.3713" x2="24.5765" y2="80.5931" gradientUnits="userSpaceOnUse">
<stop stop-color="#624AFF"/>
<stop offset="0.98" stop-color="#DD09FF"/>
</linearGradient>
<linearGradient id="paint1_linear_510_923" x1="18.391" y1="95.133" x2="30.5568" y2="-4.87722" gradientUnits="userSpaceOnUse">
<stop stop-color="#EF41FF"/>
<stop offset="0.67" stop-color="#1F6BFF"/>
<stop offset="1" stop-color="#7DE0FF"/>
</linearGradient>
<linearGradient id="paint2_linear_510_923" x1="62.897" y1="7.20331" x2="50.8499" y2="54.8203" gradientUnits="userSpaceOnUse">
<stop stop-color="#7DE0FF"/>
<stop offset="0.985" stop-color="#5707FF"/>
</linearGradient>
<clipPath id="clip0_510_923">
<rect width="89" height="102" fill="white" transform="translate(0.856934 0.5)"/>
</clipPath>
</defs>
</svg>
